<svg xmlns="http://www.w3.org/2000/svg" viewBox="0 0 800 500" fill="none">
  <rect width="800" height="500" fill="#F8F9FA"/>
  <!-- Grid pattern -->
  <g opacity="0.08">
    <line x1="100" y1="0" x2="100" y2="500" stroke="#1B2B4B" stroke-width="1"/>
    <line x1="200" y1="0" x2="200" y2="500" stroke="#1B2B4B" stroke-width="1"/>
    <line x1="300" y1="0" x2="300" y2="500" stroke="#1B2B4B" stroke-width="1"/>
    <line x1="400" y1="0" x2="400" y2="500" stroke="#1B2B4B" stroke-width="1"/>
    <line x1="500" y1="0" x2="500" y2="500" stroke="#1B2B4B" stroke-width="1"/>
    <line x1="600" y1="0" x2="600" y2="500" stroke="#1B2B4B" stroke-width="1"/>
    <line x1="700" y1="0" x2="700" y2="500" stroke="#1B2B4B" stroke-width="1"/>
    <line x1="0" y1="100" x2="800" y2="100" stroke="#1B2B4B" stroke-width="1"/>
    <line x1="0" y1="200" x2="800" y2="200" stroke="#1B2B4B" stroke-width="1"/>
    <line x1="0" y1="300" x2="800" y2="300" stroke="#1B2B4B" stroke-width="1"/>
    <line x1="0" y1="400" x2="800" y2="400" stroke="#1B2B4B" stroke-width="1"/>
  </g>
  <!-- Magnifying glass -->
  <circle cx="340" cy="220" r="90" stroke="#1B2B4B" stroke-width="6" fill="none" opacity="0.15"/>
  <line x1="405" y1="285" x2="460" y2="340" stroke="#1B2B4B" stroke-width="6" stroke-linecap="round" opacity="0.15"/>
  <!-- Data bars -->
  <rect x="280" y="280" width="40" height="80" rx="4" fill="#FF6B35" opacity="0.6"/>
  <rect x="330" y="240" width="40" height="120" rx="4" fill="#FF6B35" opacity="0.7"/>
  <rect x="380" y="200" width="40" height="160" rx="4" fill="#FF6B35" opacity="0.8"/>
  <rect x="430" y="170" width="40" height="190" rx="4" fill="#FF6B35" opacity="0.9"/>
  <rect x="480" y="140" width="40" height="220" rx="4" fill="#FF6B35" opacity="1"/>
  <!-- Trend line -->
  <path d="M300 320 L350 280 L400 250 L450 210 L500 160" stroke="#1B2B4B" stroke-width="3" fill="none" stroke-linecap="round" stroke-linejoin="round"/>
  <!-- Dots on trend -->
  <circle cx="300" cy="320" r="5" fill="#1B2B4B"/>
  <circle cx="350" cy="280" r="5" fill="#1B2B4B"/>
  <circle cx="400" cy="250" r="5" fill="#1B2B4B"/>
  <circle cx="450" cy="210" r="5" fill="#1B2B4B"/>
  <circle cx="500" cy="160" r="5" fill="#1B2B4B"/>
  <!-- Label -->
  <text x="400" y="440" font-family="system-ui, sans-serif" font-size="16" fill="#1B2B4B" text-anchor="middle" font-weight="600" letter-spacing="3" opacity="0.3">H1 INTELLIGENCE</text>
</svg>